<svg xmlns="http://www.w3.org/2000/svg" xmlns:xlink="http://www.w3.org/1999/xlink" aria-hidden="true" role="img" class="iconify iconify--logos" width="31.88" height="32" preserveAspectRatio="xMidYMid meet" viewBox="0 0 256 257"><defs><linearGradient id="IconifyId1813088fe1fbc01fb466" x1="-.828%" x2="57.636%" y1="7.652%" y2="78.411%"><stop offset="0%" stop-color="#FF00B4"/><stop offset="100%" stop-color="#430033"/></linearGradient><linearGradient id="IconifyId1813088fe1fbc01fb467" x1="43.376%" x2="50.316%" y1="2.242%" y2="89.03%"><stop offset="0%" stop-color="#FFEA83"/><stop offset="8.333%" stop-color="#FFDD35"/><stop offset="100%" stop-color="#FFA800"/></linearGradient></defs><path fill="url(#IconifyId1813088fe1fbc01fb466)" d="M128.001 0C92.703 0 63.094 19.851 45.905 51.859L128 178.32l82.095-126.461C192.906 19.851 163.297 0 128.001 0z"/><path fill="url(#IconifyId1813088fe1fbc01fb467)" d="M0 128.001c0 35.298 19.851 64.906 51.859 82.095l126.461-82.095L51.859 45.905C19.851 63.094 0 92.703 0 128.001z"/><path fill="#FFF" d="M255.003 128.001c0-35.298-19.851-64.906-51.859-82.095l-126.461 82.095l126.461 82.095c32.008-17.189 51.859-46.797 51.859-82.095z"/></svg>
